<svg class="svg-icon"  viewBox="0 0 100 100" version="1.1" xmlns="http://www.w3.org/2000/svg">
<g>
            <path fill="#ffffff" d="M33.93,46.55c1.53-14.1-5.34-23.08-5.34-23.08L7.06,56.2l22.91,0C32.2,52.93,33.32,50.16,33.93,46.55z"></path>
            <path fill="#ffffff" d="M74.92,65.33c-1.4,0-3.44,2.76-3.44,2.76l-5.51,5.68H54.04c0.02-0.14,0.04-0.28,0.04-0.43v-8.01h6.89
                c0,0,12.92-6.03,12.92-21.18c0,0-0.28-17.25-19.81-26.6V10.3c0-2.13-1.74-3.88-3.88-3.88H49c-2.13,0-3.88,1.74-3.88,3.88v3.96
                c-3.61-0.98-7.66-1.72-12.23-2.16c0,0,9.65,17.4,9.47,29.45c0,0,1.21,8.27-9.47,23.77h12.23v8.01c0,0.15,0.03,0.29,0.04,0.43H32.9
                c-7.41-0.86-6.72-9.47-6.72-9.47H1.89C2.93,93.4,29.28,92.02,29.28,92.02h39.44c10.85-0.86,18.77-18.26,18.77-18.26
                C89.91,69.46,98,66.53,98,66.53V59.3L74.92,65.33z"></path>
        </g>
        </svg>